<?xml version="1.0" standalone="no"?>
<!DOCTYPE svg PUBLIC "-//W3C//DTD SVG 20010904//EN"
 "http://www.w3.org/TR/2001/REC-SVG-20010904/DTD/svg10.dtd">
<svg version="1.0" xmlns="http://www.w3.org/2000/svg"
 width="499.000000pt" height="499.000000pt" viewBox="0 0 499.000000 499.000000"
 preserveAspectRatio="xMidYMid meet">
<metadata>
Created by potrace 1.14, written by Peter Selinger 2001-2017
</metadata>
<g transform="translate(0.000000,499.000000) scale(0.100000,-0.100000)"
fill="#000000" stroke="none">
<path d="M167 4389 c-38 -5 -77 -14 -88 -19 -28 -15 -34 -55 -14 -86 l17 -26
96 9 c167 14 378 10 463 -10 83 -19 171 -67 202 -109 11 -14 52 -138 92 -275
40 -136 121 -412 180 -613 58 -201 160 -547 225 -770 197 -672 406 -1387 445
-1520 20 -69 44 -133 52 -142 15 -17 79 -18 1073 -18 1011 0 1058 1 1073 18
24 26 21 68 -5 86 -20 14 -135 16 -1038 16 l-1016 0 -58 203 c-32 111 -61 208
-63 215 -4 9 217 12 1084 12 l1090 0 20 23 c28 31 913 1892 913 1921 0 12 -8
30 -18 39 -17 16 -160 17 -1848 17 l-1830 0 -119 406 c-84 286 -127 418 -146
448 -55 83 -172 144 -325 171 -95 16 -342 19 -457 4z m4185 -1396 c10 -9 18
-24 18 -33 0 -10 -57 -136 -126 -281 -187 -392 -223 -467 -259 -544 -118 -252
-188 -392 -202 -402 -13 -10 -208 -13 -895 -13 l-878 0 -14 23 c-19 29 -346
1178 -346 1216 0 18 7 34 18 40 11 7 460 10 1341 11 1219 0 1326 -1 1343 -17z"/>
<path d="M1780 2893 c0 -5 16 -68 37 -140 l37 -133 1118 0 1119 0 65 134 c35
73 64 136 64 140 0 9 -2440 7 -2440 -1z"/>
<path d="M1896 2501 c-3 -4 12 -68 33 -142 l38 -134 967 -3 967 -2 65 135 c35
74 64 139 64 145 0 12 -2126 14 -2134 1z"/>
<path d="M2003 2098 c2 -7 12 -40 21 -73 10 -33 26 -90 37 -127 l20 -68 817 0
818 0 66 140 66 140 -925 0 c-736 0 -924 -3 -920 -12z"/>
<path d="M1813 711 c-67 -23 -118 -62 -154 -119 -123 -194 15 -443 247 -443
184 0 318 166 280 348 -22 108 -94 187 -199 218 -66 19 -110 18 -174 -4z m129
-111 c75 -21 128 -87 128 -160 0 -57 -22 -103 -66 -136 -32 -25 -46 -29 -100
-29 -48 0 -69 5 -91 21 -49 36 -73 82 -73 136 0 100 50 156 160 177 3 0 22 -4
42 -9z"/>
<path d="M3845 713 c-75 -26 -158 -112 -181 -188 -68 -235 144 -437 377 -360
73 25 149 101 174 174 22 68 17 169 -13 226 -27 53 -85 110 -139 136 -60 29
-153 34 -218 12z m177 -129 c43 -22 78 -76 84 -130 11 -98 -66 -183 -164 -184
-53 0 -89 18 -130 64 -44 51 -52 111 -21 173 46 92 139 123 231 77z"/>
</g>
</svg>
